<svg width="1320" height="1056" viewBox="0 0 1320 1056" fill="none" xmlns="http://www.w3.org/2000/svg">
  <defs>
    <style>
      .title { font: 700 24px -apple-system, BlinkMacSystemFont, "SF Pro Display", sans-serif; fill: #F3F5F7; }
      .subtitle { font: 500 12px -apple-system, BlinkMacSystemFont, "SF Pro Text", sans-serif; fill: #8994A1; }
      .section { font: 700 14px -apple-system, BlinkMacSystemFont, "SF Pro Display", sans-serif; fill: #F3F5F7; }
      .meta { font: 600 11px -apple-system, BlinkMacSystemFont, "SF Pro Text", sans-serif; fill: #B8C2CD; letter-spacing: 0.12em; text-transform: uppercase; }
      .copy { font: 500 11px -apple-system, BlinkMacSystemFont, "SF Pro Text", sans-serif; fill: #92A0AE; }
      .pixel { shape-rendering: crispEdges; }
    </style>
    <pattern id="grid" x="0" y="0" width="8" height="8" patternUnits="userSpaceOnUse">
      <rect width="8" height="8" fill="#111419"/>
      <path d="M8 0H0V8" stroke="#1B2129" stroke-width="1" shape-rendering="crispEdges"/>
    </pattern>
    <filter id="shadow" x="-20%" y="-20%" width="140%" height="140%">
      <feDropShadow dx="0" dy="12" stdDeviation="18" flood-color="#000000" flood-opacity="0.28"/>
    </filter>

    <symbol id="mascot-pebble" viewBox="0 0 64 64">
      <rect class="pixel" x="16" y="0" width="8" height="8" fill="#6E9FFF"/>
      <rect class="pixel" x="40" y="0" width="8" height="8" fill="#6E9FFF"/>
      <rect class="pixel" x="8" y="8" width="8" height="8" fill="#6E9FFF"/>
      <rect class="pixel" x="16" y="8" width="8" height="8" fill="#6E9FFF"/>
      <rect class="pixel" x="24" y="8" width="8" height="8" fill="#6E9FFF"/>
      <rect class="pixel" x="32" y="8" width="8" height="8" fill="#6E9FFF"/>
      <rect class="pixel" x="40" y="8" width="8" height="8" fill="#6E9FFF"/>
      <rect class="pixel" x="48" y="8" width="8" height="8" fill="#6E9FFF"/>
      <rect class="pixel" x="0" y="16" width="8" height="8" fill="#6E9FFF"/>
      <rect class="pixel" x="8" y="16" width="8" height="8" fill="#6E9FFF"/>
      <rect class="pixel" x="16" y="16" width="8" height="8" fill="#96BCFF"/>
      <rect class="pixel" x="24" y="16" width="8" height="8" fill="#96BCFF"/>
      <rect class="pixel" x="32" y="16" width="8" height="8" fill="#96BCFF"/>
      <rect class="pixel" x="40" y="16" width="8" height="8" fill="#96BCFF"/>
      <rect class="pixel" x="48" y="16" width="8" height="8" fill="#6E9FFF"/>
      <rect class="pixel" x="56" y="16" width="8" height="8" fill="#6E9FFF"/>
      <rect class="pixel" x="0" y="24" width="8" height="8" fill="#6E9FFF"/>
      <rect class="pixel" x="8" y="24" width="8" height="8" fill="#6E9FFF"/>
      <rect class="pixel" x="16" y="24" width="8" height="8" fill="#96BCFF"/>
      <rect class="pixel" x="24" y="24" width="8" height="8" fill="#112548"/>
      <rect class="pixel" x="32" y="24" width="8" height="8" fill="#96BCFF"/>
      <rect class="pixel" x="40" y="24" width="8" height="8" fill="#112548"/>
      <rect class="pixel" x="48" y="24" width="8" height="8" fill="#6E9FFF"/>
      <rect class="pixel" x="56" y="24" width="8" height="8" fill="#6E9FFF"/>
      <rect class="pixel" x="0" y="32" width="8" height="8" fill="#6E9FFF"/>
      <rect class="pixel" x="8" y="32" width="8" height="8" fill="#6E9FFF"/>
      <rect class="pixel" x="16" y="32" width="8" height="8" fill="#96BCFF"/>
      <rect class="pixel" x="24" y="32" width="8" height="8" fill="#96BCFF"/>
      <rect class="pixel" x="32" y="32" width="8" height="8" fill="#96BCFF"/>
      <rect class="pixel" x="40" y="32" width="8" height="8" fill="#96BCFF"/>
      <rect class="pixel" x="48" y="32" width="8" height="8" fill="#6E9FFF"/>
      <rect class="pixel" x="56" y="32" width="8" height="8" fill="#6E9FFF"/>
      <rect class="pixel" x="8" y="40" width="8" height="8" fill="#6E9FFF"/>
      <rect class="pixel" x="16" y="40" width="8" height="8" fill="#6E9FFF"/>
      <rect class="pixel" x="24" y="40" width="8" height="8" fill="#6E9FFF"/>
      <rect class="pixel" x="32" y="40" width="8" height="8" fill="#6E9FFF"/>
      <rect class="pixel" x="40" y="40" width="8" height="8" fill="#6E9FFF"/>
      <rect class="pixel" x="48" y="40" width="8" height="8" fill="#6E9FFF"/>
      <rect class="pixel" x="16" y="48" width="8" height="8" fill="#6E9FFF"/>
      <rect class="pixel" x="40" y="48" width="8" height="8" fill="#6E9FFF"/>
    </symbol>

    <symbol id="mascot-mochi" viewBox="0 0 64 64">
      <rect class="pixel" x="24" y="0" width="8" height="8" fill="#6E9FFF"/>
      <rect class="pixel" x="16" y="8" width="8" height="8" fill="#6E9FFF"/>
      <rect class="pixel" x="24" y="8" width="8" height="8" fill="#6E9FFF"/>
      <rect class="pixel" x="32" y="8" width="8" height="8" fill="#6E9FFF"/>
      <rect class="pixel" x="40" y="8" width="8" height="8" fill="#6E9FFF"/>
      <rect class="pixel" x="8" y="16" width="8" height="8" fill="#6E9FFF"/>
      <rect class="pixel" x="16" y="16" width="8" height="8" fill="#96BCFF"/>
      <rect class="pixel" x="24" y="16" width="8" height="8" fill="#96BCFF"/>
      <rect class="pixel" x="32" y="16" width="8" height="8" fill="#96BCFF"/>
      <rect class="pixel" x="40" y="16" width="8" height="8" fill="#96BCFF"/>
      <rect class="pixel" x="48" y="16" width="8" height="8" fill="#6E9FFF"/>
      <rect class="pixel" x="8" y="24" width="8" height="8" fill="#6E9FFF"/>
      <rect class="pixel" x="16" y="24" width="8" height="8" fill="#96BCFF"/>
      <rect class="pixel" x="24" y="24" width="8" height="8" fill="#112548"/>
      <rect class="pixel" x="32" y="24" width="8" height="8" fill="#96BCFF"/>
      <rect class="pixel" x="40" y="24" width="8" height="8" fill="#112548"/>
      <rect class="pixel" x="48" y="24" width="8" height="8" fill="#6E9FFF"/>
      <rect class="pixel" x="8" y="32" width="8" height="8" fill="#6E9FFF"/>
      <rect class="pixel" x="16" y="32" width="8" height="8" fill="#96BCFF"/>
      <rect class="pixel" x="24" y="32" width="8" height="8" fill="#96BCFF"/>
      <rect class="pixel" x="32" y="32" width="8" height="8" fill="#96BCFF"/>
      <rect class="pixel" x="40" y="32" width="8" height="8" fill="#96BCFF"/>
      <rect class="pixel" x="48" y="32" width="8" height="8" fill="#6E9FFF"/>
      <rect class="pixel" x="16" y="40" width="8" height="8" fill="#6E9FFF"/>
      <rect class="pixel" x="24" y="40" width="8" height="8" fill="#6E9FFF"/>
      <rect class="pixel" x="32" y="40" width="8" height="8" fill="#6E9FFF"/>
      <rect class="pixel" x="40" y="40" width="8" height="8" fill="#6E9FFF"/>
      <rect class="pixel" x="24" y="48" width="8" height="8" fill="#6E9FFF"/>
      <rect class="pixel" x="40" y="48" width="8" height="8" fill="#6E9FFF"/>
    </symbol>

    <symbol id="mascot-scout" viewBox="0 0 64 64">
      <rect class="pixel" x="16" y="0" width="8" height="8" fill="#6E9FFF"/>
      <rect class="pixel" x="40" y="0" width="8" height="8" fill="#6E9FFF"/>
      <rect class="pixel" x="16" y="8" width="8" height="8" fill="#6E9FFF"/>
      <rect class="pixel" x="24" y="8" width="8" height="8" fill="#6E9FFF"/>
      <rect class="pixel" x="32" y="8" width="8" height="8" fill="#6E9FFF"/>
      <rect class="pixel" x="40" y="8" width="8" height="8" fill="#6E9FFF"/>
      <rect class="pixel" x="8" y="16" width="8" height="8" fill="#6E9FFF"/>
      <rect class="pixel" x="16" y="16" width="8" height="8" fill="#96BCFF"/>
      <rect class="pixel" x="24" y="16" width="8" height="8" fill="#96BCFF"/>
      <rect class="pixel" x="32" y="16" width="8" height="8" fill="#96BCFF"/>
      <rect class="pixel" x="40" y="16" width="8" height="8" fill="#96BCFF"/>
      <rect class="pixel" x="48" y="16" width="8" height="8" fill="#6E9FFF"/>
      <rect class="pixel" x="0" y="24" width="8" height="8" fill="#6E9FFF"/>
      <rect class="pixel" x="8" y="24" width="8" height="8" fill="#6E9FFF"/>
      <rect class="pixel" x="16" y="24" width="8" height="8" fill="#96BCFF"/>
      <rect class="pixel" x="24" y="24" width="8" height="8" fill="#112548"/>
      <rect class="pixel" x="32" y="24" width="8" height="8" fill="#96BCFF"/>
      <rect class="pixel" x="40" y="24" width="8" height="8" fill="#112548"/>
      <rect class="pixel" x="48" y="24" width="8" height="8" fill="#6E9FFF"/>
      <rect class="pixel" x="56" y="24" width="8" height="8" fill="#6E9FFF"/>
      <rect class="pixel" x="8" y="32" width="8" height="8" fill="#6E9FFF"/>
      <rect class="pixel" x="16" y="32" width="8" height="8" fill="#96BCFF"/>
      <rect class="pixel" x="24" y="32" width="8" height="8" fill="#96BCFF"/>
      <rect class="pixel" x="32" y="32" width="8" height="8" fill="#96BCFF"/>
      <rect class="pixel" x="40" y="32" width="8" height="8" fill="#96BCFF"/>
      <rect class="pixel" x="48" y="32" width="8" height="8" fill="#6E9FFF"/>
      <rect class="pixel" x="16" y="40" width="8" height="8" fill="#6E9FFF"/>
      <rect class="pixel" x="24" y="40" width="8" height="8" fill="#6E9FFF"/>
      <rect class="pixel" x="32" y="40" width="8" height="8" fill="#6E9FFF"/>
      <rect class="pixel" x="40" y="40" width="8" height="8" fill="#6E9FFF"/>
      <rect class="pixel" x="8" y="48" width="8" height="8" fill="#6E9FFF"/>
      <rect class="pixel" x="48" y="48" width="8" height="8" fill="#6E9FFF"/>
    </symbol>

    <symbol id="spark-blink-1" viewBox="0 0 32 32">
      <rect class="pixel" x="8" y="0" width="8" height="8" fill="#6E9FFF"/>
      <rect class="pixel" x="0" y="8" width="8" height="8" fill="#6E9FFF"/>
      <rect class="pixel" x="8" y="8" width="8" height="8" fill="#96BCFF"/>
      <rect class="pixel" x="16" y="8" width="8" height="8" fill="#6E9FFF"/>
      <rect class="pixel" x="8" y="16" width="8" height="8" fill="#6E9FFF"/>
    </symbol>

    <symbol id="spark-blink-2" viewBox="0 0 32 32">
      <rect class="pixel" x="8" y="0" width="8" height="8" fill="#96BCFF"/>
      <rect class="pixel" x="0" y="8" width="8" height="8" fill="#6E9FFF"/>
      <rect class="pixel" x="8" y="8" width="8" height="8" fill="#D6E6FF"/>
      <rect class="pixel" x="16" y="8" width="8" height="8" fill="#6E9FFF"/>
      <rect class="pixel" x="8" y="16" width="8" height="8" fill="#96BCFF"/>
      <rect class="pixel" x="24" y="8" width="8" height="8" fill="#96BCFF"/>
    </symbol>

    <symbol id="spark-blink-3" viewBox="0 0 32 32">
      <rect class="pixel" x="8" y="8" width="8" height="8" fill="#D6E6FF"/>
      <rect class="pixel" x="16" y="8" width="8" height="8" fill="#6E9FFF"/>
      <rect class="pixel" x="8" y="16" width="8" height="8" fill="#6E9FFF"/>
    </symbol>

    <symbol id="spark-morph-1" viewBox="0 0 32 32">
      <rect class="pixel" x="8" y="0" width="8" height="8" fill="#6E9FFF"/>
      <rect class="pixel" x="0" y="8" width="8" height="8" fill="#6E9FFF"/>
      <rect class="pixel" x="8" y="8" width="8" height="8" fill="#96BCFF"/>
      <rect class="pixel" x="16" y="8" width="8" height="8" fill="#6E9FFF"/>
      <rect class="pixel" x="8" y="16" width="8" height="8" fill="#6E9FFF"/>
    </symbol>

    <symbol id="spark-morph-2" viewBox="0 0 32 32">
      <rect class="pixel" x="0" y="0" width="8" height="8" fill="#6E9FFF"/>
      <rect class="pixel" x="16" y="0" width="8" height="8" fill="#6E9FFF"/>
      <rect class="pixel" x="8" y="8" width="8" height="8" fill="#D6E6FF"/>
      <rect class="pixel" x="0" y="16" width="8" height="8" fill="#6E9FFF"/>
      <rect class="pixel" x="16" y="16" width="8" height="8" fill="#6E9FFF"/>
    </symbol>

    <symbol id="spark-morph-3" viewBox="0 0 32 32">
      <rect class="pixel" x="8" y="0" width="8" height="8" fill="#96BCFF"/>
      <rect class="pixel" x="0" y="8" width="8" height="8" fill="#6E9FFF"/>
      <rect class="pixel" x="16" y="8" width="8" height="8" fill="#6E9FFF"/>
      <rect class="pixel" x="8" y="16" width="8" height="8" fill="#96BCFF"/>
    </symbol>

    <symbol id="spark-orbit" viewBox="0 0 32 32">
      <rect class="pixel" x="8" y="0" width="8" height="8" fill="#6E9FFF"/>
      <rect class="pixel" x="0" y="8" width="8" height="8" fill="#6E9FFF"/>
      <rect class="pixel" x="8" y="8" width="8" height="8" fill="#96BCFF"/>
      <rect class="pixel" x="16" y="8" width="8" height="8" fill="#6E9FFF"/>
      <rect class="pixel" x="8" y="16" width="8" height="8" fill="#6E9FFF"/>
    </symbol>
  </defs>

  <rect width="1320" height="1056" rx="28" fill="#0A0C0F"/>
  <text x="48" y="52" class="title">Mascot Motion Review</text>
  <text x="48" y="74" class="subtitle">New file only. Rows are mascots, columns are working-state motion ideas. Every card is a 3-frame storyboard on fixed grids: body 8x8, spark 4x4.</text>

  <text x="74" y="122" class="meta">Blink</text>
  <text x="74" y="142" class="copy">Brightness pulse. Safest and calmest.</text>
  <text x="500" y="122" class="meta">Morph</text>
  <text x="500" y="142" class="copy">Spark shape changes. More playful.</text>
  <text x="926" y="122" class="meta">Orbit</text>
  <text x="926" y="142" class="copy">Spark drifts by one pixel step. Most lively.</text>

  <text x="48" y="192" class="meta">A. Pebble</text>
  <text x="48" y="486" class="meta">B. Mochi</text>
  <text x="48" y="780" class="meta">C. Scout</text>

  <g filter="url(#shadow)">
    <rect x="48" y="164" width="388" height="236" rx="24" fill="#171A1F"/>
    <rect x="474" y="164" width="388" height="236" rx="24" fill="#171A1F"/>
    <rect x="900" y="164" width="388" height="236" rx="24" fill="#171A1F"/>

    <rect x="48" y="458" width="388" height="236" rx="24" fill="#171A1F"/>
    <rect x="474" y="458" width="388" height="236" rx="24" fill="#171A1F"/>
    <rect x="900" y="458" width="388" height="236" rx="24" fill="#171A1F"/>

    <rect x="48" y="752" width="388" height="236" rx="24" fill="#171A1F"/>
    <rect x="474" y="752" width="388" height="236" rx="24" fill="#171A1F"/>
    <rect x="900" y="752" width="388" height="236" rx="24" fill="#171A1F"/>
  </g>

  <!-- Row 1: Pebble -->
  <text x="72" y="192" class="section">Pebble × Blink</text>
  <text x="72" y="212" class="copy">Spark stays in place and pulses brighter.</text>
  <text x="498" y="192" class="section">Pebble × Morph</text>
  <text x="498" y="212" class="copy">Spark cycles plus → X → diamond.</text>
  <text x="924" y="192" class="section">Pebble × Orbit</text>
  <text x="924" y="212" class="copy">Spark walks around the right edge by one cell.</text>

  <!-- Row 2: Mochi -->
  <text x="72" y="486" class="section">Mochi × Blink</text>
  <text x="72" y="506" class="copy">Softest silhouette with the safest pulse.</text>
  <text x="498" y="486" class="section">Mochi × Morph</text>
  <text x="498" y="506" class="copy">Shape change reads clearly at small sizes.</text>
  <text x="924" y="486" class="section">Mochi × Orbit</text>
  <text x="924" y="506" class="copy">Feels cute, but slightly busier than blink.</text>

  <!-- Row 3: Scout -->
  <text x="72" y="780" class="section">Scout × Blink</text>
  <text x="72" y="800" class="copy">More character without extra motion noise.</text>
  <text x="498" y="780" class="section">Scout × Morph</text>
  <text x="498" y="800" class="copy">Best if you want the mascot to feel more alive.</text>
  <text x="924" y="780" class="section">Scout × Orbit</text>
  <text x="924" y="800" class="copy">Most expressive, also the busiest option here.</text>

  <!-- Frame labels -->
  <g class="meta">
    <text x="88" y="236">F1</text><text x="206" y="236">F2</text><text x="324" y="236">F3</text>
    <text x="514" y="236">F1</text><text x="632" y="236">F2</text><text x="750" y="236">F3</text>
    <text x="940" y="236">F1</text><text x="1058" y="236">F2</text><text x="1176" y="236">F3</text>

    <text x="88" y="530">F1</text><text x="206" y="530">F2</text><text x="324" y="530">F3</text>
    <text x="514" y="530">F1</text><text x="632" y="530">F2</text><text x="750" y="530">F3</text>
    <text x="940" y="530">F1</text><text x="1058" y="530">F2</text><text x="1176" y="530">F3</text>

    <text x="88" y="824">F1</text><text x="206" y="824">F2</text><text x="324" y="824">F3</text>
    <text x="514" y="824">F1</text><text x="632" y="824">F2</text><text x="750" y="824">F3</text>
    <text x="940" y="824">F1</text><text x="1058" y="824">F2</text><text x="1176" y="824">F3</text>
  </g>

  <!-- 27 frame backgrounds -->
  <g>
    <rect x="72" y="246" width="94" height="112" rx="18" fill="#101319"/><rect x="72" y="246" width="94" height="112" rx="18" stroke="#1D232C"/>
    <rect x="190" y="246" width="94" height="112" rx="18" fill="#101319"/><rect x="190" y="246" width="94" height="112" rx="18" stroke="#1D232C"/>
    <rect x="308" y="246" width="94" height="112" rx="18" fill="#101319"/><rect x="308" y="246" width="94" height="112" rx="18" stroke="#1D232C"/>

    <rect x="498" y="246" width="94" height="112" rx="18" fill="#101319"/><rect x="498" y="246" width="94" height="112" rx="18" stroke="#1D232C"/>
    <rect x="616" y="246" width="94" height="112" rx="18" fill="#101319"/><rect x="616" y="246" width="94" height="112" rx="18" stroke="#1D232C"/>
    <rect x="734" y="246" width="94" height="112" rx="18" fill="#101319"/><rect x="734" y="246" width="94" height="112" rx="18" stroke="#1D232C"/>

    <rect x="924" y="246" width="94" height="112" rx="18" fill="#101319"/><rect x="924" y="246" width="94" height="112" rx="18" stroke="#1D232C"/>
    <rect x="1042" y="246" width="94" height="112" rx="18" fill="#101319"/><rect x="1042" y="246" width="94" height="112" rx="18" stroke="#1D232C"/>
    <rect x="1160" y="246" width="94" height="112" rx="18" fill="#101319"/><rect x="1160" y="246" width="94" height="112" rx="18" stroke="#1D232C"/>

    <rect x="72" y="540" width="94" height="112" rx="18" fill="#101319"/><rect x="72" y="540" width="94" height="112" rx="18" stroke="#1D232C"/>
    <rect x="190" y="540" width="94" height="112" rx="18" fill="#101319"/><rect x="190" y="540" width="94" height="112" rx="18" stroke="#1D232C"/>
    <rect x="308" y="540" width="94" height="112" rx="18" fill="#101319"/><rect x="308" y="540" width="94" height="112" rx="18" stroke="#1D232C"/>

    <rect x="498" y="540" width="94" height="112" rx="18" fill="#101319"/><rect x="498" y="540" width="94" height="112" rx="18" stroke="#1D232C"/>
    <rect x="616" y="540" width="94" height="112" rx="18" fill="#101319"/><rect x="616" y="540" width="94" height="112" rx="18" stroke="#1D232C"/>
    <rect x="734" y="540" width="94" height="112" rx="18" fill="#101319"/><rect x="734" y="540" width="94" height="112" rx="18" stroke="#1D232C"/>

    <rect x="924" y="540" width="94" height="112" rx="18" fill="#101319"/><rect x="924" y="540" width="94" height="112" rx="18" stroke="#1D232C"/>
    <rect x="1042" y="540" width="94" height="112" rx="18" fill="#101319"/><rect x="1042" y="540" width="94" height="112" rx="18" stroke="#1D232C"/>
    <rect x="1160" y="540" width="94" height="112" rx="18" fill="#101319"/><rect x="1160" y="540" width="94" height="112" rx="18" stroke="#1D232C"/>

    <rect x="72" y="834" width="94" height="112" rx="18" fill="#101319"/><rect x="72" y="834" width="94" height="112" rx="18" stroke="#1D232C"/>
    <rect x="190" y="834" width="94" height="112" rx="18" fill="#101319"/><rect x="190" y="834" width="94" height="112" rx="18" stroke="#1D232C"/>
    <rect x="308" y="834" width="94" height="112" rx="18" fill="#101319"/><rect x="308" y="834" width="94" height="112" rx="18" stroke="#1D232C"/>

    <rect x="498" y="834" width="94" height="112" rx="18" fill="#101319"/><rect x="498" y="834" width="94" height="112" rx="18" stroke="#1D232C"/>
    <rect x="616" y="834" width="94" height="112" rx="18" fill="#101319"/><rect x="616" y="834" width="94" height="112" rx="18" stroke="#1D232C"/>
    <rect x="734" y="834" width="94" height="112" rx="18" fill="#101319"/><rect x="734" y="834" width="94" height="112" rx="18" stroke="#1D232C"/>

    <rect x="924" y="834" width="94" height="112" rx="18" fill="#101319"/><rect x="924" y="834" width="94" height="112" rx="18" stroke="#1D232C"/>
    <rect x="1042" y="834" width="94" height="112" rx="18" fill="#101319"/><rect x="1042" y="834" width="94" height="112" rx="18" stroke="#1D232C"/>
    <rect x="1160" y="834" width="94" height="112" rx="18" fill="#101319"/><rect x="1160" y="834" width="94" height="112" rx="18" stroke="#1D232C"/>
  </g>

  <!-- grid backgrounds -->
  <g opacity="0.85">
    <!-- Frame 1 row -->
    <rect x="87" y="270" width="64" height="64" rx="12" fill="url(#grid)"/><rect x="205" y="270" width="64" height="64" rx="12" fill="url(#grid)"/><rect x="323" y="270" width="64" height="64" rx="12" fill="url(#grid)"/>
    <rect x="513" y="270" width="64" height="64" rx="12" fill="url(#grid)"/><rect x="631" y="270" width="64" height="64" rx="12" fill="url(#grid)"/><rect x="749" y="270" width="64" height="64" rx="12" fill="url(#grid)"/>
    <rect x="939" y="270" width="64" height="64" rx="12" fill="url(#grid)"/><rect x="1057" y="270" width="64" height="64" rx="12" fill="url(#grid)"/><rect x="1175" y="270" width="64" height="64" rx="12" fill="url(#grid)"/>

    <!-- Frame 2 row -->
    <rect x="87" y="564" width="64" height="64" rx="12" fill="url(#grid)"/><rect x="205" y="564" width="64" height="64" rx="12" fill="url(#grid)"/><rect x="323" y="564" width="64" height="64" rx="12" fill="url(#grid)"/>
    <rect x="513" y="564" width="64" height="64" rx="12" fill="url(#grid)"/><rect x="631" y="564" width="64" height="64" rx="12" fill="url(#grid)"/><rect x="749" y="564" width="64" height="64" rx="12" fill="url(#grid)"/>
    <rect x="939" y="564" width="64" height="64" rx="12" fill="url(#grid)"/><rect x="1057" y="564" width="64" height="64" rx="12" fill="url(#grid)"/><rect x="1175" y="564" width="64" height="64" rx="12" fill="url(#grid)"/>

    <!-- Frame 3 row -->
    <rect x="87" y="858" width="64" height="64" rx="12" fill="url(#grid)"/><rect x="205" y="858" width="64" height="64" rx="12" fill="url(#grid)"/><rect x="323" y="858" width="64" height="64" rx="12" fill="url(#grid)"/>
    <rect x="513" y="858" width="64" height="64" rx="12" fill="url(#grid)"/><rect x="631" y="858" width="64" height="64" rx="12" fill="url(#grid)"/><rect x="749" y="858" width="64" height="64" rx="12" fill="url(#grid)"/>
    <rect x="939" y="858" width="64" height="64" rx="12" fill="url(#grid)"/><rect x="1057" y="858" width="64" height="64" rx="12" fill="url(#grid)"/><rect x="1175" y="858" width="64" height="64" rx="12" fill="url(#grid)"/>
  </g>

  <!-- mascots -->
  <g>
    <!-- Pebble row -->
    <use href="#mascot-pebble" x="87" y="270" width="64" height="64"/>
    <use href="#mascot-pebble" x="205" y="270" width="64" height="64"/>
    <use href="#mascot-pebble" x="323" y="270" width="64" height="64"/>
    <use href="#mascot-pebble" x="513" y="270" width="64" height="64"/>
    <use href="#mascot-pebble" x="631" y="270" width="64" height="64"/>
    <use href="#mascot-pebble" x="749" y="270" width="64" height="64"/>
    <use href="#mascot-pebble" x="939" y="270" width="64" height="64"/>
    <use href="#mascot-pebble" x="1057" y="270" width="64" height="64"/>
    <use href="#mascot-pebble" x="1175" y="270" width="64" height="64"/>

    <!-- Mochi row -->
    <use href="#mascot-mochi" x="87" y="564" width="64" height="64"/>
    <use href="#mascot-mochi" x="205" y="564" width="64" height="64"/>
    <use href="#mascot-mochi" x="323" y="564" width="64" height="64"/>
    <use href="#mascot-mochi" x="513" y="564" width="64" height="64"/>
    <use href="#mascot-mochi" x="631" y="564" width="64" height="64"/>
    <use href="#mascot-mochi" x="749" y="564" width="64" height="64"/>
    <use href="#mascot-mochi" x="939" y="564" width="64" height="64"/>
    <use href="#mascot-mochi" x="1057" y="564" width="64" height="64"/>
    <use href="#mascot-mochi" x="1175" y="564" width="64" height="64"/>

    <!-- Scout row -->
    <use href="#mascot-scout" x="87" y="858" width="64" height="64"/>
    <use href="#mascot-scout" x="205" y="858" width="64" height="64"/>
    <use href="#mascot-scout" x="323" y="858" width="64" height="64"/>
    <use href="#mascot-scout" x="513" y="858" width="64" height="64"/>
    <use href="#mascot-scout" x="631" y="858" width="64" height="64"/>
    <use href="#mascot-scout" x="749" y="858" width="64" height="64"/>
    <use href="#mascot-scout" x="939" y="858" width="64" height="64"/>
    <use href="#mascot-scout" x="1057" y="858" width="64" height="64"/>
    <use href="#mascot-scout" x="1175" y="858" width="64" height="64"/>
  </g>

  <!-- Sparks: blink column -->
  <g>
    <use href="#spark-blink-1" x="137" y="286" width="32" height="32"/>
    <use href="#spark-blink-2" x="255" y="286" width="32" height="32"/>
    <use href="#spark-blink-3" x="373" y="286" width="32" height="32"/>

    <use href="#spark-blink-1" x="137" y="580" width="32" height="32"/>
    <use href="#spark-blink-2" x="255" y="580" width="32" height="32"/>
    <use href="#spark-blink-3" x="373" y="580" width="32" height="32"/>

    <use href="#spark-blink-1" x="137" y="874" width="32" height="32"/>
    <use href="#spark-blink-2" x="255" y="874" width="32" height="32"/>
    <use href="#spark-blink-3" x="373" y="874" width="32" height="32"/>
  </g>

  <!-- Sparks: morph column -->
  <g>
    <use href="#spark-morph-1" x="563" y="286" width="32" height="32"/>
    <use href="#spark-morph-2" x="681" y="286" width="32" height="32"/>
    <use href="#spark-morph-3" x="799" y="286" width="32" height="32"/>

    <use href="#spark-morph-1" x="563" y="580" width="32" height="32"/>
    <use href="#spark-morph-2" x="681" y="580" width="32" height="32"/>
    <use href="#spark-morph-3" x="799" y="580" width="32" height="32"/>

    <use href="#spark-morph-1" x="563" y="874" width="32" height="32"/>
    <use href="#spark-morph-2" x="681" y="874" width="32" height="32"/>
    <use href="#spark-morph-3" x="799" y="874" width="32" height="32"/>
  </g>

  <!-- Sparks: orbit column -->
  <g>
    <use href="#spark-orbit" x="983" y="274" width="32" height="32"/>
    <use href="#spark-orbit" x="1109" y="286" width="32" height="32"/>
    <use href="#spark-orbit" x="1219" y="298" width="32" height="32"/>

    <use href="#spark-orbit" x="983" y="568" width="32" height="32"/>
    <use href="#spark-orbit" x="1109" y="580" width="32" height="32"/>
    <use href="#spark-orbit" x="1219" y="592" width="32" height="32"/>

    <use href="#spark-orbit" x="983" y="862" width="32" height="32"/>
    <use href="#spark-orbit" x="1109" y="874" width="32" height="32"/>
    <use href="#spark-orbit" x="1219" y="886" width="32" height="32"/>
  </g>
</svg>
