<svg width="960" height="430" viewBox="0 0 960 430" fill="none" xmlns="http://www.w3.org/2000/svg">
  <defs>
    <style>
      .title { font: 700 22px -apple-system, BlinkMacSystemFont, "SF Pro Display", sans-serif; fill: #f4f5f7; }
      .subtitle { font: 500 12px -apple-system, BlinkMacSystemFont, "SF Pro Text", sans-serif; fill: #86909c; }
      .card-title { font: 700 15px -apple-system, BlinkMacSystemFont, "SF Pro Display", sans-serif; fill: #f4f5f7; }
      .card-copy { font: 500 12px -apple-system, BlinkMacSystemFont, "SF Pro Text", sans-serif; fill: #94a0ad; }
      .chip { font: 700 10px -apple-system, BlinkMacSystemFont, "SF Pro Text", sans-serif; fill: #c6d0db; letter-spacing: 0.12em; text-transform: uppercase; }
      .pixel { shape-rendering: crispEdges; }
    </style>
    <filter id="shadow" x="-20%" y="-20%" width="140%" height="140%">
      <feDropShadow dx="0" dy="10" stdDeviation="18" flood-color="#000000" flood-opacity="0.28"/>
    </filter>
  </defs>

  <rect width="960" height="430" rx="26" fill="#0B0C0E"/>
  <text x="40" y="48" class="title">Mascot Review</text>
  <text x="40" y="70" class="subtitle">Cute + simple directions only. Idle uses green, working uses blue and a tiny activity spark.</text>

  <g filter="url(#shadow)">
    <rect x="40" y="98" width="274" height="292" rx="28" fill="#17191C"/>
    <rect x="58" y="146" width="110" height="128" rx="22" fill="#0F1114"/>
    <rect x="186" y="146" width="110" height="128" rx="22" fill="#0F1114"/>
    <text x="58" y="124" class="card-title">A. Pebble</text>
    <text x="58" y="334" class="card-copy">Closest to your refs. Low, friendly, tiny ear bumps.</text>
    <text x="82" y="166" class="chip">Idle</text>
    <text x="204" y="166" class="chip">Working</text>

    <g transform="translate(82 188)">
      <rect class="pixel" x="16" y="0" width="12" height="12" fill="#33E26A"/>
      <rect class="pixel" x="40" y="0" width="12" height="12" fill="#33E26A"/>
      <rect class="pixel" x="4" y="12" width="12" height="12" fill="#33E26A"/>
      <rect class="pixel" x="16" y="12" width="12" height="12" fill="#33E26A"/>
      <rect class="pixel" x="28" y="12" width="12" height="12" fill="#33E26A"/>
      <rect class="pixel" x="40" y="12" width="12" height="12" fill="#33E26A"/>
      <rect class="pixel" x="52" y="12" width="12" height="12" fill="#33E26A"/>
      <rect class="pixel" x="4" y="24" width="12" height="12" fill="#33E26A"/>
      <rect class="pixel" x="16" y="24" width="12" height="12" fill="#33E26A"/>
      <rect class="pixel" x="40" y="24" width="12" height="12" fill="#33E26A"/>
      <rect class="pixel" x="52" y="24" width="12" height="12" fill="#33E26A"/>
      <rect class="pixel" x="16" y="24" width="12" height="12" fill="#33E26A"/>
      <rect class="pixel" x="24" y="24" width="4" height="4" fill="#0A2314"/>
      <rect class="pixel" x="44" y="24" width="4" height="4" fill="#0A2314"/>
      <rect class="pixel" x="4" y="36" width="12" height="12" fill="#33E26A"/>
      <rect class="pixel" x="16" y="36" width="12" height="12" fill="#33E26A"/>
      <rect class="pixel" x="28" y="36" width="12" height="12" fill="#5AF08A"/>
      <rect class="pixel" x="40" y="36" width="12" height="12" fill="#33E26A"/>
      <rect class="pixel" x="52" y="36" width="12" height="12" fill="#33E26A"/>
      <rect class="pixel" x="16" y="48" width="12" height="12" fill="#33E26A"/>
      <rect class="pixel" x="40" y="48" width="12" height="12" fill="#33E26A"/>
    </g>

    <g transform="translate(204 188)">
      <rect class="pixel" x="16" y="0" width="12" height="12" fill="#5A97FF"/>
      <rect class="pixel" x="40" y="0" width="12" height="12" fill="#5A97FF"/>
      <rect class="pixel" x="4" y="12" width="12" height="12" fill="#5A97FF"/>
      <rect class="pixel" x="16" y="12" width="12" height="12" fill="#5A97FF"/>
      <rect class="pixel" x="28" y="12" width="12" height="12" fill="#5A97FF"/>
      <rect class="pixel" x="40" y="12" width="12" height="12" fill="#5A97FF"/>
      <rect class="pixel" x="52" y="12" width="12" height="12" fill="#5A97FF"/>
      <rect class="pixel" x="4" y="24" width="12" height="12" fill="#5A97FF"/>
      <rect class="pixel" x="16" y="24" width="12" height="12" fill="#5A97FF"/>
      <rect class="pixel" x="40" y="24" width="12" height="12" fill="#5A97FF"/>
      <rect class="pixel" x="52" y="24" width="12" height="12" fill="#5A97FF"/>
      <rect class="pixel" x="24" y="24" width="4" height="4" fill="#132E61"/>
      <rect class="pixel" x="44" y="24" width="4" height="4" fill="#132E61"/>
      <rect class="pixel" x="4" y="36" width="12" height="12" fill="#5A97FF"/>
      <rect class="pixel" x="16" y="36" width="12" height="12" fill="#5A97FF"/>
      <rect class="pixel" x="28" y="36" width="12" height="12" fill="#83B5FF"/>
      <rect class="pixel" x="40" y="36" width="12" height="12" fill="#5A97FF"/>
      <rect class="pixel" x="52" y="36" width="12" height="12" fill="#5A97FF"/>
      <rect class="pixel" x="16" y="48" width="12" height="12" fill="#5A97FF"/>
      <rect class="pixel" x="40" y="48" width="12" height="12" fill="#5A97FF"/>

      <rect class="pixel" x="82" y="20" width="10" height="10" fill="#5A97FF"/>
      <rect class="pixel" x="92" y="10" width="10" height="10" fill="#5A97FF"/>
      <rect class="pixel" x="92" y="20" width="10" height="10" fill="#83B5FF"/>
      <rect class="pixel" x="92" y="30" width="10" height="10" fill="#5A97FF"/>
      <rect class="pixel" x="102" y="20" width="10" height="10" fill="#5A97FF"/>
    </g>
  </g>

  <g filter="url(#shadow)">
    <rect x="343" y="98" width="274" height="292" rx="28" fill="#17191C"/>
    <rect x="361" y="146" width="110" height="128" rx="22" fill="#0F1114"/>
    <rect x="489" y="146" width="110" height="128" rx="22" fill="#0F1114"/>
    <text x="361" y="124" class="card-title">B. Mochi</text>
    <text x="361" y="334" class="card-copy">Rounder and softer. Easiest to scale down to tiny sizes.</text>
    <text x="385" y="166" class="chip">Idle</text>
    <text x="507" y="166" class="chip">Working</text>

    <g transform="translate(385 190)">
      <rect class="pixel" x="24" y="0" width="12" height="12" fill="#33E26A"/>
      <rect class="pixel" x="36" y="0" width="12" height="12" fill="#33E26A"/>
      <rect class="pixel" x="48" y="0" width="12" height="12" fill="#33E26A"/>
      <rect class="pixel" x="12" y="12" width="12" height="12" fill="#33E26A"/>
      <rect class="pixel" x="24" y="12" width="12" height="12" fill="#33E26A"/>
      <rect class="pixel" x="36" y="12" width="12" height="12" fill="#52EC82"/>
      <rect class="pixel" x="48" y="12" width="12" height="12" fill="#33E26A"/>
      <rect class="pixel" x="60" y="12" width="12" height="12" fill="#33E26A"/>
      <rect class="pixel" x="12" y="24" width="12" height="12" fill="#33E26A"/>
      <rect class="pixel" x="24" y="24" width="12" height="12" fill="#33E26A"/>
      <rect class="pixel" x="48" y="24" width="12" height="12" fill="#33E26A"/>
      <rect class="pixel" x="60" y="24" width="12" height="12" fill="#33E26A"/>
      <rect class="pixel" x="32" y="24" width="4" height="4" fill="#0A2314"/>
      <rect class="pixel" x="52" y="24" width="4" height="4" fill="#0A2314"/>
      <rect class="pixel" x="12" y="36" width="12" height="12" fill="#33E26A"/>
      <rect class="pixel" x="24" y="36" width="12" height="12" fill="#33E26A"/>
      <rect class="pixel" x="36" y="36" width="12" height="12" fill="#33E26A"/>
      <rect class="pixel" x="48" y="36" width="12" height="12" fill="#33E26A"/>
      <rect class="pixel" x="60" y="36" width="12" height="12" fill="#33E26A"/>
      <rect class="pixel" x="24" y="48" width="12" height="12" fill="#33E26A"/>
      <rect class="pixel" x="36" y="48" width="12" height="12" fill="#33E26A"/>
      <rect class="pixel" x="48" y="48" width="12" height="12" fill="#33E26A"/>
      <rect class="pixel" x="24" y="60" width="12" height="12" fill="#33E26A"/>
      <rect class="pixel" x="48" y="60" width="12" height="12" fill="#33E26A"/>
    </g>

    <g transform="translate(507 190)">
      <rect class="pixel" x="24" y="0" width="12" height="12" fill="#5A97FF"/>
      <rect class="pixel" x="36" y="0" width="12" height="12" fill="#5A97FF"/>
      <rect class="pixel" x="48" y="0" width="12" height="12" fill="#5A97FF"/>
      <rect class="pixel" x="12" y="12" width="12" height="12" fill="#5A97FF"/>
      <rect class="pixel" x="24" y="12" width="12" height="12" fill="#5A97FF"/>
      <rect class="pixel" x="36" y="12" width="12" height="12" fill="#84B6FF"/>
      <rect class="pixel" x="48" y="12" width="12" height="12" fill="#5A97FF"/>
      <rect class="pixel" x="60" y="12" width="12" height="12" fill="#5A97FF"/>
      <rect class="pixel" x="12" y="24" width="12" height="12" fill="#5A97FF"/>
      <rect class="pixel" x="24" y="24" width="12" height="12" fill="#5A97FF"/>
      <rect class="pixel" x="48" y="24" width="12" height="12" fill="#5A97FF"/>
      <rect class="pixel" x="60" y="24" width="12" height="12" fill="#5A97FF"/>
      <rect class="pixel" x="32" y="24" width="4" height="4" fill="#132E61"/>
      <rect class="pixel" x="52" y="24" width="4" height="4" fill="#132E61"/>
      <rect class="pixel" x="12" y="36" width="12" height="12" fill="#5A97FF"/>
      <rect class="pixel" x="24" y="36" width="12" height="12" fill="#5A97FF"/>
      <rect class="pixel" x="36" y="36" width="12" height="12" fill="#5A97FF"/>
      <rect class="pixel" x="48" y="36" width="12" height="12" fill="#5A97FF"/>
      <rect class="pixel" x="60" y="36" width="12" height="12" fill="#5A97FF"/>
      <rect class="pixel" x="24" y="48" width="12" height="12" fill="#5A97FF"/>
      <rect class="pixel" x="36" y="48" width="12" height="12" fill="#5A97FF"/>
      <rect class="pixel" x="48" y="48" width="12" height="12" fill="#5A97FF"/>
      <rect class="pixel" x="24" y="60" width="12" height="12" fill="#5A97FF"/>
      <rect class="pixel" x="48" y="60" width="12" height="12" fill="#5A97FF"/>

      <rect class="pixel" x="86" y="18" width="8" height="8" fill="#5A97FF"/>
      <rect class="pixel" x="94" y="10" width="8" height="8" fill="#84B6FF"/>
      <rect class="pixel" x="94" y="18" width="8" height="8" fill="#5A97FF"/>
      <rect class="pixel" x="94" y="26" width="8" height="8" fill="#84B6FF"/>
      <rect class="pixel" x="102" y="18" width="8" height="8" fill="#5A97FF"/>
    </g>
  </g>

  <g filter="url(#shadow)">
    <rect x="646" y="98" width="274" height="292" rx="28" fill="#17191C"/>
    <rect x="664" y="146" width="110" height="128" rx="22" fill="#0F1114"/>
    <rect x="792" y="146" width="110" height="128" rx="22" fill="#0F1114"/>
    <text x="664" y="124" class="card-title">C. Scout</text>
    <text x="664" y="334" class="card-copy">Slightly more character. Tiny legs, still very compact.</text>
    <text x="688" y="166" class="chip">Idle</text>
    <text x="810" y="166" class="chip">Working</text>

    <g transform="translate(688 188)">
      <rect class="pixel" x="24" y="0" width="12" height="12" fill="#33E26A"/>
      <rect class="pixel" x="48" y="0" width="12" height="12" fill="#33E26A"/>
      <rect class="pixel" x="12" y="12" width="12" height="12" fill="#33E26A"/>
      <rect class="pixel" x="24" y="12" width="12" height="12" fill="#33E26A"/>
      <rect class="pixel" x="36" y="12" width="12" height="12" fill="#52EC82"/>
      <rect class="pixel" x="48" y="12" width="12" height="12" fill="#33E26A"/>
      <rect class="pixel" x="60" y="12" width="12" height="12" fill="#33E26A"/>
      <rect class="pixel" x="12" y="24" width="12" height="12" fill="#33E26A"/>
      <rect class="pixel" x="24" y="24" width="12" height="12" fill="#33E26A"/>
      <rect class="pixel" x="36" y="24" width="12" height="12" fill="#33E26A"/>
      <rect class="pixel" x="48" y="24" width="12" height="12" fill="#33E26A"/>
      <rect class="pixel" x="60" y="24" width="12" height="12" fill="#33E26A"/>
      <rect class="pixel" x="32" y="24" width="4" height="4" fill="#0A2314"/>
      <rect class="pixel" x="52" y="24" width="4" height="4" fill="#0A2314"/>
      <rect class="pixel" x="24" y="36" width="12" height="12" fill="#33E26A"/>
      <rect class="pixel" x="36" y="36" width="12" height="12" fill="#33E26A"/>
      <rect class="pixel" x="48" y="36" width="12" height="12" fill="#33E26A"/>
      <rect class="pixel" x="12" y="48" width="12" height="12" fill="#33E26A"/>
      <rect class="pixel" x="24" y="48" width="12" height="12" fill="#33E26A"/>
      <rect class="pixel" x="48" y="48" width="12" height="12" fill="#33E26A"/>
      <rect class="pixel" x="60" y="48" width="12" height="12" fill="#33E26A"/>
    </g>

    <g transform="translate(810 188)">
      <rect class="pixel" x="24" y="0" width="12" height="12" fill="#5A97FF"/>
      <rect class="pixel" x="48" y="0" width="12" height="12" fill="#5A97FF"/>
      <rect class="pixel" x="12" y="12" width="12" height="12" fill="#5A97FF"/>
      <rect class="pixel" x="24" y="12" width="12" height="12" fill="#5A97FF"/>
      <rect class="pixel" x="36" y="12" width="12" height="12" fill="#84B6FF"/>
      <rect class="pixel" x="48" y="12" width="12" height="12" fill="#5A97FF"/>
      <rect class="pixel" x="60" y="12" width="12" height="12" fill="#5A97FF"/>
      <rect class="pixel" x="12" y="24" width="12" height="12" fill="#5A97FF"/>
      <rect class="pixel" x="24" y="24" width="12" height="12" fill="#5A97FF"/>
      <rect class="pixel" x="36" y="24" width="12" height="12" fill="#5A97FF"/>
      <rect class="pixel" x="48" y="24" width="12" height="12" fill="#5A97FF"/>
      <rect class="pixel" x="60" y="24" width="12" height="12" fill="#5A97FF"/>
      <rect class="pixel" x="32" y="24" width="4" height="4" fill="#132E61"/>
      <rect class="pixel" x="52" y="24" width="4" height="4" fill="#132E61"/>
      <rect class="pixel" x="24" y="36" width="12" height="12" fill="#5A97FF"/>
      <rect class="pixel" x="36" y="36" width="12" height="12" fill="#5A97FF"/>
      <rect class="pixel" x="48" y="36" width="12" height="12" fill="#5A97FF"/>
      <rect class="pixel" x="12" y="48" width="12" height="12" fill="#5A97FF"/>
      <rect class="pixel" x="24" y="48" width="12" height="12" fill="#5A97FF"/>
      <rect class="pixel" x="48" y="48" width="12" height="12" fill="#5A97FF"/>
      <rect class="pixel" x="60" y="48" width="12" height="12" fill="#5A97FF"/>

      <rect class="pixel" x="86" y="12" width="8" height="8" fill="#5A97FF"/>
      <rect class="pixel" x="94" y="20" width="8" height="8" fill="#84B6FF"/>
      <rect class="pixel" x="102" y="28" width="8" height="8" fill="#5A97FF"/>
      <rect class="pixel" x="94" y="36" width="8" height="8" fill="#84B6FF"/>
    </g>
  </g>
</svg>
