<svg width="972" height="452" viewBox="0 0 972 452" fill="none" xmlns="http://www.w3.org/2000/svg">
  <defs>
    <style>
      .title { font: 700 22px -apple-system, BlinkMacSystemFont, "SF Pro Display", sans-serif; fill: #F3F5F7; }
      .subtitle { font: 500 12px -apple-system, BlinkMacSystemFont, "SF Pro Text", sans-serif; fill: #8A95A3; }
      .card-title { font: 700 15px -apple-system, BlinkMacSystemFont, "SF Pro Display", sans-serif; fill: #F3F5F7; }
      .card-copy { font: 500 12px -apple-system, BlinkMacSystemFont, "SF Pro Text", sans-serif; fill: #97A2AE; }
      .chip { font: 700 10px -apple-system, BlinkMacSystemFont, "SF Pro Text", sans-serif; fill: #C7D0DB; letter-spacing: 0.12em; text-transform: uppercase; }
      .pixel { shape-rendering: crispEdges; }
    </style>
    <pattern id="grid" x="0" y="0" width="8" height="8" patternUnits="userSpaceOnUse">
      <rect width="8" height="8" fill="#111419"/>
      <path d="M8 0H0V8" stroke="#1B2129" stroke-width="1" shape-rendering="crispEdges"/>
    </pattern>
    <filter id="shadow" x="-20%" y="-20%" width="140%" height="140%">
      <feDropShadow dx="0" dy="12" stdDeviation="18" flood-color="#000000" flood-opacity="0.28"/>
    </filter>
  </defs>

  <rect width="972" height="452" rx="28" fill="#0A0C0F"/>
  <text x="40" y="48" class="title">Mascot Review</text>
  <text x="40" y="70" class="subtitle">Rebuilt on strict square-pixel canvases. Mascot body uses an 8x8 grid; working spark uses a separate 4x4 grid with the same 8x8 cells.</text>

  <g filter="url(#shadow)">
    <rect x="40" y="98" width="272" height="314" rx="28" fill="#171A1F"/>
    <text x="60" y="126" class="card-title">A. Pebble</text>
    <text x="60" y="146" class="card-copy">Most like your reference. Low silhouette, tiny ear bumps, safe default.</text>

    <rect x="60" y="170" width="120" height="132" rx="24" fill="#101319"/>
    <text x="80" y="192" class="chip">Idle</text>
    <rect x="80" y="214" width="64" height="64" rx="12" fill="url(#grid)"/>
    <rect x="80" y="214" width="64" height="64" rx="12" stroke="#1D232C"/>
    <g transform="translate(80 214)">
      <rect class="pixel" x="16" y="0" width="8" height="8" fill="#42E86B"/>
      <rect class="pixel" x="40" y="0" width="8" height="8" fill="#42E86B"/>
      <rect class="pixel" x="8" y="8" width="8" height="8" fill="#42E86B"/>
      <rect class="pixel" x="16" y="8" width="8" height="8" fill="#42E86B"/>
      <rect class="pixel" x="24" y="8" width="8" height="8" fill="#42E86B"/>
      <rect class="pixel" x="32" y="8" width="8" height="8" fill="#42E86B"/>
      <rect class="pixel" x="40" y="8" width="8" height="8" fill="#42E86B"/>
      <rect class="pixel" x="48" y="8" width="8" height="8" fill="#42E86B"/>
      <rect class="pixel" x="0" y="16" width="8" height="8" fill="#42E86B"/>
      <rect class="pixel" x="8" y="16" width="8" height="8" fill="#42E86B"/>
      <rect class="pixel" x="16" y="16" width="8" height="8" fill="#67F28D"/>
      <rect class="pixel" x="24" y="16" width="8" height="8" fill="#67F28D"/>
      <rect class="pixel" x="32" y="16" width="8" height="8" fill="#67F28D"/>
      <rect class="pixel" x="40" y="16" width="8" height="8" fill="#67F28D"/>
      <rect class="pixel" x="48" y="16" width="8" height="8" fill="#42E86B"/>
      <rect class="pixel" x="56" y="16" width="8" height="8" fill="#42E86B"/>
      <rect class="pixel" x="0" y="24" width="8" height="8" fill="#42E86B"/>
      <rect class="pixel" x="8" y="24" width="8" height="8" fill="#42E86B"/>
      <rect class="pixel" x="16" y="24" width="8" height="8" fill="#67F28D"/>
      <rect class="pixel" x="24" y="24" width="8" height="8" fill="#0C2111"/>
      <rect class="pixel" x="32" y="24" width="8" height="8" fill="#67F28D"/>
      <rect class="pixel" x="40" y="24" width="8" height="8" fill="#0C2111"/>
      <rect class="pixel" x="48" y="24" width="8" height="8" fill="#42E86B"/>
      <rect class="pixel" x="56" y="24" width="8" height="8" fill="#42E86B"/>
      <rect class="pixel" x="0" y="32" width="8" height="8" fill="#42E86B"/>
      <rect class="pixel" x="8" y="32" width="8" height="8" fill="#42E86B"/>
      <rect class="pixel" x="16" y="32" width="8" height="8" fill="#67F28D"/>
      <rect class="pixel" x="24" y="32" width="8" height="8" fill="#67F28D"/>
      <rect class="pixel" x="32" y="32" width="8" height="8" fill="#67F28D"/>
      <rect class="pixel" x="40" y="32" width="8" height="8" fill="#67F28D"/>
      <rect class="pixel" x="48" y="32" width="8" height="8" fill="#42E86B"/>
      <rect class="pixel" x="56" y="32" width="8" height="8" fill="#42E86B"/>
      <rect class="pixel" x="8" y="40" width="8" height="8" fill="#42E86B"/>
      <rect class="pixel" x="16" y="40" width="8" height="8" fill="#42E86B"/>
      <rect class="pixel" x="24" y="40" width="8" height="8" fill="#42E86B"/>
      <rect class="pixel" x="32" y="40" width="8" height="8" fill="#42E86B"/>
      <rect class="pixel" x="40" y="40" width="8" height="8" fill="#42E86B"/>
      <rect class="pixel" x="48" y="40" width="8" height="8" fill="#42E86B"/>
      <rect class="pixel" x="16" y="48" width="8" height="8" fill="#42E86B"/>
      <rect class="pixel" x="40" y="48" width="8" height="8" fill="#42E86B"/>
    </g>

    <rect x="192" y="170" width="120" height="132" rx="24" fill="#101319"/>
    <text x="212" y="192" class="chip">Working</text>
    <rect x="208" y="214" width="64" height="64" rx="12" fill="url(#grid)"/>
    <rect x="208" y="214" width="64" height="64" rx="12" stroke="#1D232C"/>
    <rect x="276" y="230" width="32" height="32" rx="10" fill="url(#grid)"/>
    <rect x="276" y="230" width="32" height="32" rx="10" stroke="#1D232C"/>
    <g transform="translate(208 214)">
      <rect class="pixel" x="16" y="0" width="8" height="8" fill="#6E9FFF"/>
      <rect class="pixel" x="40" y="0" width="8" height="8" fill="#6E9FFF"/>
      <rect class="pixel" x="8" y="8" width="8" height="8" fill="#6E9FFF"/>
      <rect class="pixel" x="16" y="8" width="8" height="8" fill="#6E9FFF"/>
      <rect class="pixel" x="24" y="8" width="8" height="8" fill="#6E9FFF"/>
      <rect class="pixel" x="32" y="8" width="8" height="8" fill="#6E9FFF"/>
      <rect class="pixel" x="40" y="8" width="8" height="8" fill="#6E9FFF"/>
      <rect class="pixel" x="48" y="8" width="8" height="8" fill="#6E9FFF"/>
      <rect class="pixel" x="0" y="16" width="8" height="8" fill="#6E9FFF"/>
      <rect class="pixel" x="8" y="16" width="8" height="8" fill="#6E9FFF"/>
      <rect class="pixel" x="16" y="16" width="8" height="8" fill="#96BCFF"/>
      <rect class="pixel" x="24" y="16" width="8" height="8" fill="#96BCFF"/>
      <rect class="pixel" x="32" y="16" width="8" height="8" fill="#96BCFF"/>
      <rect class="pixel" x="40" y="16" width="8" height="8" fill="#96BCFF"/>
      <rect class="pixel" x="48" y="16" width="8" height="8" fill="#6E9FFF"/>
      <rect class="pixel" x="56" y="16" width="8" height="8" fill="#6E9FFF"/>
      <rect class="pixel" x="0" y="24" width="8" height="8" fill="#6E9FFF"/>
      <rect class="pixel" x="8" y="24" width="8" height="8" fill="#6E9FFF"/>
      <rect class="pixel" x="16" y="24" width="8" height="8" fill="#96BCFF"/>
      <rect class="pixel" x="24" y="24" width="8" height="8" fill="#112548"/>
      <rect class="pixel" x="32" y="24" width="8" height="8" fill="#96BCFF"/>
      <rect class="pixel" x="40" y="24" width="8" height="8" fill="#112548"/>
      <rect class="pixel" x="48" y="24" width="8" height="8" fill="#6E9FFF"/>
      <rect class="pixel" x="56" y="24" width="8" height="8" fill="#6E9FFF"/>
      <rect class="pixel" x="0" y="32" width="8" height="8" fill="#6E9FFF"/>
      <rect class="pixel" x="8" y="32" width="8" height="8" fill="#6E9FFF"/>
      <rect class="pixel" x="16" y="32" width="8" height="8" fill="#96BCFF"/>
      <rect class="pixel" x="24" y="32" width="8" height="8" fill="#96BCFF"/>
      <rect class="pixel" x="32" y="32" width="8" height="8" fill="#96BCFF"/>
      <rect class="pixel" x="40" y="32" width="8" height="8" fill="#96BCFF"/>
      <rect class="pixel" x="48" y="32" width="8" height="8" fill="#6E9FFF"/>
      <rect class="pixel" x="56" y="32" width="8" height="8" fill="#6E9FFF"/>
      <rect class="pixel" x="8" y="40" width="8" height="8" fill="#6E9FFF"/>
      <rect class="pixel" x="16" y="40" width="8" height="8" fill="#6E9FFF"/>
      <rect class="pixel" x="24" y="40" width="8" height="8" fill="#6E9FFF"/>
      <rect class="pixel" x="32" y="40" width="8" height="8" fill="#6E9FFF"/>
      <rect class="pixel" x="40" y="40" width="8" height="8" fill="#6E9FFF"/>
      <rect class="pixel" x="48" y="40" width="8" height="8" fill="#6E9FFF"/>
      <rect class="pixel" x="16" y="48" width="8" height="8" fill="#6E9FFF"/>
      <rect class="pixel" x="40" y="48" width="8" height="8" fill="#6E9FFF"/>
    </g>
    <g transform="translate(276 230)">
      <rect class="pixel" x="8" y="0" width="8" height="8" fill="#6E9FFF"/>
      <rect class="pixel" x="0" y="8" width="8" height="8" fill="#6E9FFF"/>
      <rect class="pixel" x="8" y="8" width="8" height="8" fill="#96BCFF"/>
      <rect class="pixel" x="16" y="8" width="8" height="8" fill="#6E9FFF"/>
      <rect class="pixel" x="8" y="16" width="8" height="8" fill="#6E9FFF"/>
    </g>
  </g>

  <g filter="url(#shadow)">
    <rect x="350" y="98" width="272" height="314" rx="28" fill="#171A1F"/>
    <text x="370" y="126" class="card-title">B. Mochi</text>
    <text x="370" y="146" class="card-copy">Roundest silhouette. Best candidate for the tiniest notch and menu sizes.</text>

    <rect x="370" y="170" width="120" height="132" rx="24" fill="#101319"/>
    <text x="390" y="192" class="chip">Idle</text>
    <rect x="390" y="214" width="64" height="64" rx="12" fill="url(#grid)"/>
    <rect x="390" y="214" width="64" height="64" rx="12" stroke="#1D232C"/>
    <g transform="translate(390 214)">
      <rect class="pixel" x="24" y="0" width="8" height="8" fill="#42E86B"/>
      <rect class="pixel" x="16" y="8" width="8" height="8" fill="#42E86B"/>
      <rect class="pixel" x="24" y="8" width="8" height="8" fill="#42E86B"/>
      <rect class="pixel" x="32" y="8" width="8" height="8" fill="#42E86B"/>
      <rect class="pixel" x="40" y="8" width="8" height="8" fill="#42E86B"/>
      <rect class="pixel" x="8" y="16" width="8" height="8" fill="#42E86B"/>
      <rect class="pixel" x="16" y="16" width="8" height="8" fill="#67F28D"/>
      <rect class="pixel" x="24" y="16" width="8" height="8" fill="#67F28D"/>
      <rect class="pixel" x="32" y="16" width="8" height="8" fill="#67F28D"/>
      <rect class="pixel" x="40" y="16" width="8" height="8" fill="#67F28D"/>
      <rect class="pixel" x="48" y="16" width="8" height="8" fill="#42E86B"/>
      <rect class="pixel" x="8" y="24" width="8" height="8" fill="#42E86B"/>
      <rect class="pixel" x="16" y="24" width="8" height="8" fill="#67F28D"/>
      <rect class="pixel" x="24" y="24" width="8" height="8" fill="#0C2111"/>
      <rect class="pixel" x="32" y="24" width="8" height="8" fill="#67F28D"/>
      <rect class="pixel" x="40" y="24" width="8" height="8" fill="#0C2111"/>
      <rect class="pixel" x="48" y="24" width="8" height="8" fill="#42E86B"/>
      <rect class="pixel" x="8" y="32" width="8" height="8" fill="#42E86B"/>
      <rect class="pixel" x="16" y="32" width="8" height="8" fill="#67F28D"/>
      <rect class="pixel" x="24" y="32" width="8" height="8" fill="#67F28D"/>
      <rect class="pixel" x="32" y="32" width="8" height="8" fill="#67F28D"/>
      <rect class="pixel" x="40" y="32" width="8" height="8" fill="#67F28D"/>
      <rect class="pixel" x="48" y="32" width="8" height="8" fill="#42E86B"/>
      <rect class="pixel" x="16" y="40" width="8" height="8" fill="#42E86B"/>
      <rect class="pixel" x="24" y="40" width="8" height="8" fill="#42E86B"/>
      <rect class="pixel" x="32" y="40" width="8" height="8" fill="#42E86B"/>
      <rect class="pixel" x="40" y="40" width="8" height="8" fill="#42E86B"/>
      <rect class="pixel" x="24" y="48" width="8" height="8" fill="#42E86B"/>
      <rect class="pixel" x="40" y="48" width="8" height="8" fill="#42E86B"/>
    </g>

    <rect x="502" y="170" width="120" height="132" rx="24" fill="#101319"/>
    <text x="522" y="192" class="chip">Working</text>
    <rect x="520" y="214" width="64" height="64" rx="12" fill="url(#grid)"/>
    <rect x="520" y="214" width="64" height="64" rx="12" stroke="#1D232C"/>
    <rect x="588" y="230" width="32" height="32" rx="10" fill="url(#grid)"/>
    <rect x="588" y="230" width="32" height="32" rx="10" stroke="#1D232C"/>
    <g transform="translate(520 214)">
      <rect class="pixel" x="24" y="0" width="8" height="8" fill="#6E9FFF"/>
      <rect class="pixel" x="16" y="8" width="8" height="8" fill="#6E9FFF"/>
      <rect class="pixel" x="24" y="8" width="8" height="8" fill="#6E9FFF"/>
      <rect class="pixel" x="32" y="8" width="8" height="8" fill="#6E9FFF"/>
      <rect class="pixel" x="40" y="8" width="8" height="8" fill="#6E9FFF"/>
      <rect class="pixel" x="8" y="16" width="8" height="8" fill="#6E9FFF"/>
      <rect class="pixel" x="16" y="16" width="8" height="8" fill="#96BCFF"/>
      <rect class="pixel" x="24" y="16" width="8" height="8" fill="#96BCFF"/>
      <rect class="pixel" x="32" y="16" width="8" height="8" fill="#96BCFF"/>
      <rect class="pixel" x="40" y="16" width="8" height="8" fill="#96BCFF"/>
      <rect class="pixel" x="48" y="16" width="8" height="8" fill="#6E9FFF"/>
      <rect class="pixel" x="8" y="24" width="8" height="8" fill="#6E9FFF"/>
      <rect class="pixel" x="16" y="24" width="8" height="8" fill="#96BCFF"/>
      <rect class="pixel" x="24" y="24" width="8" height="8" fill="#112548"/>
      <rect class="pixel" x="32" y="24" width="8" height="8" fill="#96BCFF"/>
      <rect class="pixel" x="40" y="24" width="8" height="8" fill="#112548"/>
      <rect class="pixel" x="48" y="24" width="8" height="8" fill="#6E9FFF"/>
      <rect class="pixel" x="8" y="32" width="8" height="8" fill="#6E9FFF"/>
      <rect class="pixel" x="16" y="32" width="8" height="8" fill="#96BCFF"/>
      <rect class="pixel" x="24" y="32" width="8" height="8" fill="#96BCFF"/>
      <rect class="pixel" x="32" y="32" width="8" height="8" fill="#96BCFF"/>
      <rect class="pixel" x="40" y="32" width="8" height="8" fill="#96BCFF"/>
      <rect class="pixel" x="48" y="32" width="8" height="8" fill="#6E9FFF"/>
      <rect class="pixel" x="16" y="40" width="8" height="8" fill="#6E9FFF"/>
      <rect class="pixel" x="24" y="40" width="8" height="8" fill="#6E9FFF"/>
      <rect class="pixel" x="32" y="40" width="8" height="8" fill="#6E9FFF"/>
      <rect class="pixel" x="40" y="40" width="8" height="8" fill="#6E9FFF"/>
      <rect class="pixel" x="24" y="48" width="8" height="8" fill="#6E9FFF"/>
      <rect class="pixel" x="40" y="48" width="8" height="8" fill="#6E9FFF"/>
    </g>
    <g transform="translate(588 230)">
      <rect class="pixel" x="8" y="0" width="8" height="8" fill="#6E9FFF"/>
      <rect class="pixel" x="0" y="8" width="8" height="8" fill="#6E9FFF"/>
      <rect class="pixel" x="8" y="8" width="8" height="8" fill="#96BCFF"/>
      <rect class="pixel" x="16" y="8" width="8" height="8" fill="#6E9FFF"/>
      <rect class="pixel" x="24" y="8" width="8" height="8" fill="#6E9FFF"/>
      <rect class="pixel" x="16" y="16" width="8" height="8" fill="#6E9FFF"/>
    </g>
  </g>

  <g filter="url(#shadow)">
    <rect x="660" y="98" width="272" height="314" rx="28" fill="#171A1F"/>
    <text x="680" y="126" class="card-title">C. Scout</text>
    <text x="680" y="146" class="card-copy">A touch more character. Slightly taller legs, still locked to the same grid.</text>

    <rect x="680" y="170" width="120" height="132" rx="24" fill="#101319"/>
    <text x="700" y="192" class="chip">Idle</text>
    <rect x="700" y="214" width="64" height="64" rx="12" fill="url(#grid)"/>
    <rect x="700" y="214" width="64" height="64" rx="12" stroke="#1D232C"/>
    <g transform="translate(700 214)">
      <rect class="pixel" x="16" y="0" width="8" height="8" fill="#42E86B"/>
      <rect class="pixel" x="40" y="0" width="8" height="8" fill="#42E86B"/>
      <rect class="pixel" x="16" y="8" width="8" height="8" fill="#42E86B"/>
      <rect class="pixel" x="24" y="8" width="8" height="8" fill="#42E86B"/>
      <rect class="pixel" x="32" y="8" width="8" height="8" fill="#42E86B"/>
      <rect class="pixel" x="40" y="8" width="8" height="8" fill="#42E86B"/>
      <rect class="pixel" x="8" y="16" width="8" height="8" fill="#42E86B"/>
      <rect class="pixel" x="16" y="16" width="8" height="8" fill="#67F28D"/>
      <rect class="pixel" x="24" y="16" width="8" height="8" fill="#67F28D"/>
      <rect class="pixel" x="32" y="16" width="8" height="8" fill="#67F28D"/>
      <rect class="pixel" x="40" y="16" width="8" height="8" fill="#67F28D"/>
      <rect class="pixel" x="48" y="16" width="8" height="8" fill="#42E86B"/>
      <rect class="pixel" x="0" y="24" width="8" height="8" fill="#42E86B"/>
      <rect class="pixel" x="8" y="24" width="8" height="8" fill="#42E86B"/>
      <rect class="pixel" x="16" y="24" width="8" height="8" fill="#67F28D"/>
      <rect class="pixel" x="24" y="24" width="8" height="8" fill="#0C2111"/>
      <rect class="pixel" x="32" y="24" width="8" height="8" fill="#67F28D"/>
      <rect class="pixel" x="40" y="24" width="8" height="8" fill="#0C2111"/>
      <rect class="pixel" x="48" y="24" width="8" height="8" fill="#42E86B"/>
      <rect class="pixel" x="56" y="24" width="8" height="8" fill="#42E86B"/>
      <rect class="pixel" x="8" y="32" width="8" height="8" fill="#42E86B"/>
      <rect class="pixel" x="16" y="32" width="8" height="8" fill="#67F28D"/>
      <rect class="pixel" x="24" y="32" width="8" height="8" fill="#67F28D"/>
      <rect class="pixel" x="32" y="32" width="8" height="8" fill="#67F28D"/>
      <rect class="pixel" x="40" y="32" width="8" height="8" fill="#67F28D"/>
      <rect class="pixel" x="48" y="32" width="8" height="8" fill="#42E86B"/>
      <rect class="pixel" x="16" y="40" width="8" height="8" fill="#42E86B"/>
      <rect class="pixel" x="24" y="40" width="8" height="8" fill="#42E86B"/>
      <rect class="pixel" x="32" y="40" width="8" height="8" fill="#42E86B"/>
      <rect class="pixel" x="40" y="40" width="8" height="8" fill="#42E86B"/>
      <rect class="pixel" x="8" y="48" width="8" height="8" fill="#42E86B"/>
      <rect class="pixel" x="48" y="48" width="8" height="8" fill="#42E86B"/>
    </g>

    <rect x="812" y="170" width="120" height="132" rx="24" fill="#101319"/>
    <text x="832" y="192" class="chip">Working</text>
    <rect x="830" y="214" width="64" height="64" rx="12" fill="url(#grid)"/>
    <rect x="830" y="214" width="64" height="64" rx="12" stroke="#1D232C"/>
    <rect x="898" y="230" width="32" height="32" rx="10" fill="url(#grid)"/>
    <rect x="898" y="230" width="32" height="32" rx="10" stroke="#1D232C"/>
    <g transform="translate(830 214)">
      <rect class="pixel" x="16" y="0" width="8" height="8" fill="#6E9FFF"/>
      <rect class="pixel" x="40" y="0" width="8" height="8" fill="#6E9FFF"/>
      <rect class="pixel" x="16" y="8" width="8" height="8" fill="#6E9FFF"/>
      <rect class="pixel" x="24" y="8" width="8" height="8" fill="#6E9FFF"/>
      <rect class="pixel" x="32" y="8" width="8" height="8" fill="#6E9FFF"/>
      <rect class="pixel" x="40" y="8" width="8" height="8" fill="#6E9FFF"/>
      <rect class="pixel" x="8" y="16" width="8" height="8" fill="#6E9FFF"/>
      <rect class="pixel" x="16" y="16" width="8" height="8" fill="#96BCFF"/>
      <rect class="pixel" x="24" y="16" width="8" height="8" fill="#96BCFF"/>
      <rect class="pixel" x="32" y="16" width="8" height="8" fill="#96BCFF"/>
      <rect class="pixel" x="40" y="16" width="8" height="8" fill="#96BCFF"/>
      <rect class="pixel" x="48" y="16" width="8" height="8" fill="#6E9FFF"/>
      <rect class="pixel" x="0" y="24" width="8" height="8" fill="#6E9FFF"/>
      <rect class="pixel" x="8" y="24" width="8" height="8" fill="#6E9FFF"/>
      <rect class="pixel" x="16" y="24" width="8" height="8" fill="#96BCFF"/>
      <rect class="pixel" x="24" y="24" width="8" height="8" fill="#112548"/>
      <rect class="pixel" x="32" y="24" width="8" height="8" fill="#96BCFF"/>
      <rect class="pixel" x="40" y="24" width="8" height="8" fill="#112548"/>
      <rect class="pixel" x="48" y="24" width="8" height="8" fill="#6E9FFF"/>
      <rect class="pixel" x="56" y="24" width="8" height="8" fill="#6E9FFF"/>
      <rect class="pixel" x="8" y="32" width="8" height="8" fill="#6E9FFF"/>
      <rect class="pixel" x="16" y="32" width="8" height="8" fill="#96BCFF"/>
      <rect class="pixel" x="24" y="32" width="8" height="8" fill="#96BCFF"/>
      <rect class="pixel" x="32" y="32" width="8" height="8" fill="#96BCFF"/>
      <rect class="pixel" x="40" y="32" width="8" height="8" fill="#96BCFF"/>
      <rect class="pixel" x="48" y="32" width="8" height="8" fill="#6E9FFF"/>
      <rect class="pixel" x="16" y="40" width="8" height="8" fill="#6E9FFF"/>
      <rect class="pixel" x="24" y="40" width="8" height="8" fill="#6E9FFF"/>
      <rect class="pixel" x="32" y="40" width="8" height="8" fill="#6E9FFF"/>
      <rect class="pixel" x="40" y="40" width="8" height="8" fill="#6E9FFF"/>
      <rect class="pixel" x="8" y="48" width="8" height="8" fill="#6E9FFF"/>
      <rect class="pixel" x="48" y="48" width="8" height="8" fill="#6E9FFF"/>
    </g>
    <g transform="translate(898 230)">
      <rect class="pixel" x="8" y="0" width="8" height="8" fill="#6E9FFF"/>
      <rect class="pixel" x="16" y="8" width="8" height="8" fill="#96BCFF"/>
      <rect class="pixel" x="24" y="16" width="8" height="8" fill="#6E9FFF"/>
      <rect class="pixel" x="16" y="24" width="8" height="8" fill="#96BCFF"/>
    </g>
  </g>
</svg>
